<?xml version="1.0" encoding="utf-8"?>
<COLLADA xmlns="http://www.collada.org/2005/11/COLLADASchema" version="1.4.1">
  <asset>
    <contributor>
      <author>Blender User</author>
      <authoring_tool>Blender 2.71.0 commit date:2014-06-25, commit time:18:36, hash:9337574</authoring_tool>
    </contributor>
    <created>2014-09-25T15:23:15</created>
    <modified>2014-09-25T15:23:15</modified>
    <unit name="meter" meter="1"/>
    <up_axis>Z_UP</up_axis>
  </asset>
  <library_images/>
  <library_effects>
    <effect id="Material_003-effect">
      <profile_COMMON>
        <technique sid="common">
          <phong>
            <emission>
              <color sid="emission">0 0 0 1</color>
            </emission>
            <ambient>
              <color sid="ambient">0 0 0 1</color>
            </ambient>
            <diffuse>
              <color sid="diffuse">0.8 0.8 0.8 1</color>
            </diffuse>
            <specular>
              <color sid="specular">0.5 0.5 0.5 1</color>
            </specular>
            <shininess>
              <float sid="shininess">50</float>
            </shininess>
            <index_of_refraction>
              <float sid="index_of_refraction">1</float>
            </index_of_refraction>
          </phong>
        </technique>
      </profile_COMMON>
    </effect>
  </library_effects>
  <library_materials>
    <material id="Material_003-material" name="Material_003">
      <instance_effect url="#Material_003-effect"/>
    </material>
  </library_materials>
  <library_geometries>
    <geometry id="Cube_001-mesh" name="Cube.001">
      <mesh>
        <source id="Cube_001-mesh-positions">
          <float_array id="Cube_001-mesh-positions-array" count="588">-0.9661682 -0.9661682 -0.1191847 -0.9661682 0.9661682 -0.1191847 0.9661682 0.9661682 -0.1191847 0.9661682 -0.9661682 -0.1191847 -0.9661682 -0.9661682 0.1191847 -0.9661682 0.9661682 0.1191847 0.9661682 0.9661682 0.1191847 0.9661682 -0.9661682 0.1191847 0.7206733 -0.8716357 -1.535384 0.7206733 -0.7196533 -1.535384 0.8706153 -0.7196533 -1.535384 0.8706153 -0.8716357 -1.535384 0.6836443 -0.9091687 -0.05231314 0.6836443 -0.6821203 -0.05231314 0.9076444 -0.6821203 -0.05231314 0.9076444 -0.9091687 -0.05231314 -0.8721207 -0.8716357 -1.535384 -0.8721207 -0.7196533 -1.535384 -0.7221788 -0.7196533 -1.535384 -0.7221788 -0.8716357 -1.535384 -0.9091498 -0.9091687 -0.05231314 -0.9091498 -0.6821203 -0.05231314 -0.6851497 -0.6821203 -0.05231314 -0.6851497 -0.9091687 -0.05231314 0.7206733 0.7179328 -1.535384 0.7206733 0.8699153 -1.535384 0.8706153 0.8699153 -1.535384 0.8706153 0.7179328 -1.535384 0.6836443 0.6803998 -0.05231314 0.6836443 0.9074482 -0.05231314 0.9076444 0.9074482 -0.05231314 0.9076444 0.6803998 -0.05231314 -0.8721207 0.7179328 -1.535384 -0.8721207 0.8699153 -1.535384 -0.7221788 0.8699153 -1.535384 -0.7221788 0.7179328 -1.535384 -0.9091498 0.6803998 -0.05231314 -0.9091498 0.9074482 -0.05231314 -0.6851497 0.9074482 -0.05231314 -0.6851497 0.6803998 -0.05231314 0.7133017 -0.8835648 0.07437092 0.7133017 -0.7266741 0.08168715 0.8883534 -0.726234 0.0722503 0.8883534 -0.8831247 0.06493395 0.8087409 -1.011964 2.324689 0.8087409 -0.8082523 2.334189 1.036033 -0.8076809 2.321935 1.036033 -1.011393 2.312435 -0.7138982 -0.8835648 0.07437098 -0.7138982 -0.7266741 0.08168721 -0.8889499 -0.726234 0.07225036 -0.8889499 -0.8831247 0.06493401 -0.8093374 -1.011964 2.324689 -0.8093374 -0.8082523 2.334189 -1.03663 -0.8076809 2.321935 -1.03663 -1.011393 2.312435 -0.8700469 -0.9477031 1.870335 -0.8700469 -0.8318634 1.87568 0.8700469 -0.8318634 1.87568 0.8700469 -0.9477031 1.870335 -0.8700469 -0.9524518 1.973251 -0.8700469 -0.8366121 1.978596 0.8700469 -0.8366121 1.978596 0.8700469 -0.9524518 1.973251 -0.5800312 -0.8403787 2.060225 -0.2900156 -0.8424119 2.104291 0 -0.8428453 2.113682 0.2900156 -0.8424119 2.104291 0.5800313 -0.8403787 2.060225 0.5800312 -0.8356299 1.95731 0.2900156 -0.8376632 2.001375 0 -0.8380965 2.010766 -0.2900156 -0.8376632 2.001375 -0.5800313 -0.8356299 1.95731 0.5800312 -0.9562184 2.05488 0.2900156 -0.9582517 2.098946 0 -0.958685 2.108337 -0.2900156 -0.9582517 2.098946 -0.5800313 -0.9562184 2.05488 -0.5800312 -0.9514697 1.951965 -0.2900156 -0.953503 1.99603 0 -0.9539363 2.005421 0.2900156 -0.953503 1.99603 0.5800313 -0.9514697 1.951965 -0.8700469 -0.9361799 1.620601 -0.8700469 -0.8203402 1.625946 0.8700469 -0.8203402 1.625946 0.8700469 -0.9361799 1.620601 -0.8700469 -0.9409286 1.723516 -0.8700469 -0.8250889 1.728861 0.8700469 -0.8250889 1.728861 0.8700469 -0.9409286 1.723516 -0.5800312 -0.8288555 1.810491 -0.2900156 -0.8308887 1.854557 0 -0.831322 1.863948 0.2900156 -0.8308887 1.854557 0.5800313 -0.8288555 1.810491 0.5800312 -0.8241068 1.707576 0.2900156 -0.82614 1.751641 0 -0.8265733 1.761032 -0.2900156 -0.82614 1.751641 -0.5800313 -0.8241068 1.707576 0.5800312 -0.9446952 1.805146 0.2900156 -0.9467285 1.849211 0 -0.9471617 1.858603 -0.2900156 -0.9467285 1.849211 -0.5800313 -0.9446952 1.805146 -0.5800312 -0.9399465 1.702231 -0.2900156 -0.9419797 1.746296 0 -0.942413 1.755687 0.2900156 -0.9419797 1.746296 0.5800313 -0.9399465 1.702231 -0.8700469 -0.9246567 1.370867 -0.8700469 -0.808817 1.376212 0.8700469 -0.808817 1.376212 0.8700469 -0.9246567 1.370867 -0.8700469 -0.9294054 1.473782 -0.8700469 -0.8135657 1.479127 0.8700469 -0.8135657 1.479127 0.8700469 -0.9294054 1.473782 -0.5800312 -0.8173322 1.560757 -0.2900156 -0.8193655 1.604822 0 -0.8197988 1.614213 0.2900156 -0.8193655 1.604822 0.5800313 -0.8173322 1.560757 0.5800312 -0.8125835 1.457841 0.2900156 -0.8146168 1.501907 0 -0.8150501 1.511298 -0.2900156 -0.8146168 1.501907 -0.5800313 -0.8125835 1.457841 0.5800312 -0.933172 1.555412 0.2900156 -0.9352052 1.599477 0 -0.9356386 1.608868 -0.2900156 -0.9352052 1.599477 -0.5800313 -0.933172 1.555412 -0.5800312 -0.9284232 1.452496 -0.2900156 -0.9304565 1.496562 0 -0.9308899 1.505953 0.2900156 -0.9304565 1.496562 0.5800313 -0.9284232 1.452496 -0.8700469 -0.9131335 1.121132 -0.8700469 -0.7972938 1.126477 0.8700469 -0.7972938 1.126477 0.8700469 -0.9131335 1.121132 -0.8700469 -0.9178822 1.224048 -0.8700469 -0.8020425 1.229393 0.8700469 -0.8020425 1.229393 0.8700469 -0.9178822 1.224048 -0.5800312 -0.805809 1.311022 -0.2900156 -0.8078423 1.355088 0 -0.8082756 1.364479 0.2900156 -0.8078423 1.355088 0.5800313 -0.805809 1.311022 0.5800312 -0.8010603 1.208107 0.2900156 -0.8030936 1.252173 0 -0.8035269 1.261564 -0.2900156 -0.8030936 1.252173 -0.5800313 -0.8010603 1.208107 0.5800312 -0.9216488 1.305677 0.2900156 -0.923682 1.349743 0 -0.9241154 1.359134 -0.2900156 -0.923682 1.349743 -0.5800313 -0.9216488 1.305677 -0.5800312 -0.9169 1.202762 -0.2900156 -0.9189333 1.246828 0 -0.9193666 1.256219 0.2900156 -0.9189333 1.246828 0.5800313 -0.9169 1.202762 -0.8700469 -0.9016103 0.8713981 -0.8700469 -0.7857705 0.8767431 0.8700469 -0.7857705 0.8767431 0.8700469 -0.9016103 0.8713981 -0.8700469 -0.906359 0.9743136 -0.8700469 -0.7905192 0.9796586 0.8700469 -0.7905192 0.9796586 0.8700469 -0.906359 0.9743136 -0.5800312 -0.7942858 1.061288 -0.2900156 -0.7963191 1.105354 0 -0.7967524 1.114745 0.2900156 -0.7963191 1.105354 0.5800313 -0.7942858 1.061288 0.5800312 -0.7895371 0.9583728 0.2900156 -0.7915704 1.002438 0 -0.7920037 1.011829 -0.2900156 -0.7915704 1.002438 -0.5800313 -0.7895371 0.9583728 0.5800312 -0.9101256 1.055943 0.2900156 -0.9121588 1.100009 0 -0.9125921 1.1094 -0.2900156 -0.9121588 1.100009 -0.5800313 -0.9101256 1.055943 -0.5800312 -0.9053769 0.9530278 -0.2900156 -0.9074101 0.9970933 0 -0.9078434 1.006484 0.2900156 -0.9074101 0.9970933 0.5800313 -0.9053769 0.9530278</float_array>
          <technique_common>
            <accessor source="#Cube_001-mesh-positions-array" count="196" stride="3">
              <param name="X" type="float"/>
              <param name="Y" type="float"/>
              <param name="Z" type="float"/>
            </accessor>
          </technique_common>
        </source>
        <source id="Cube_001-mesh-normals">
          <float_array id="Cube_001-mesh-normals-array" count="1032">-1 0 0 0 1 0 1 0 0 0 -1 0 0 0 -1 0 0 1 -0.9996884 0 -0.02495998 0 0.9996798 -0.02529948 0.9996884 0 -0.02496004 0 -0.9996798 -0.02529948 0 0 -1 0 0 1 -0.9996884 0 -0.02495998 0 0.9996798 -0.02529948 0.9996884 0 -0.02496004 0 -0.9996798 -0.02529948 0 0 -1 0 0 1 -0.9996884 0 -0.02495998 0 0.9996798 -0.02529948 0.9996884 0 -0.02496004 0 -0.9996798 -0.02529948 0 0 -1 0 0 1 -0.9996884 0 -0.02495998 0 0.9996798 -0.02529948 0.9996884 0 -0.02496004 0 -0.9996798 -0.02529948 0 0 -1 0 0 1 -0.9991047 -0.001970708 0.042261 -5.60176e-4 0.9993438 0.03621667 0.9978549 0.003049492 -0.06539356 -5.5991e-4 -0.9983773 -0.05694204 -0.05388903 0.04651433 -0.9974631 0.05389195 -0.04651391 0.9974628 0.9991046 -0.001970708 0.042261 5.5984e-4 0.9993439 0.03621667 -0.9978549 0.003049492 -0.06539356 5.5991e-4 -0.9983774 -0.05694204 0.05388903 0.0465151 -0.9974629 -0.05389195 -0.04651391 0.9974628 -1 0 0 0 0.9989371 0.04609268 1 0 0 0 -0.9989372 -0.04609274 -0.271206 0.04436469 -0.9614983 -0.2712052 -0.0443657 0.9614984 0 0.9989371 0.0460928 -1.71922e-7 0.9989371 0.04609328 0 0.9989372 0.04609328 0 0.9989372 0.04609328 0 0.9989371 0.0460928 0 -0.9989371 -0.0460928 0 -0.9989371 -0.04609274 0 -0.9989372 -0.04609268 0 -0.9989373 -0.04609274 0 -0.9989371 -0.0460928 0.271206 0.04436582 -0.9614983 0.1503738 0.04556804 -0.9875784 0.03239864 0.04606896 -0.9984127 -0.03239864 0.04606795 -0.9984127 -0.1503738 0.045569 -0.9875785 0.2712053 -0.04436582 0.9614985 0.1503746 -0.04556912 0.9875783 0.03239864 -0.04606896 0.9984127 -0.03239864 -0.04606896 0.9984127 -0.1503746 -0.045569 0.9875783 -1 0 0 1.33446e-7 0.9989371 0.04609328 1 0 0 0 -0.9989372 -0.04609274 -0.271206 0.04436469 -0.9614984 -0.2712052 -0.0443657 0.9614984 1.66565e-7 0.9989371 0.0460928 0 0.9989371 0.04609274 0 0.9989373 0.04609274 0 0.9989373 0.04609274 0 0.9989371 0.0460928 0 -0.9989371 -0.04609274 -2.06988e-7 -0.9989371 -0.04609334 0 -0.9989373 -0.04609274 2.08693e-7 -0.9989372 -0.04609334 0 -0.9989372 -0.04609274 0.271206 0.04436582 -0.9614983 0.1503738 0.0455681 -0.9875785 0.03239864 0.04606896 -0.9984127 -0.03239864 0.04606795 -0.9984127 -0.1503738 0.045569 -0.9875785 0.2712053 -0.04436486 0.9614986 0.1503742 -0.04556906 0.9875783 0.03239864 -0.04606896 0.9984127 -0.03239864 -0.04606896 0.9984127 -0.1503742 -0.04556798 0.9875785 -1 0 0 0 0.9989371 0.04609268 1 0 0 -2.34749e-7 -0.9989371 -0.04609268 -0.271206 0.04436564 -0.9614983 -0.2712052 -0.0443657 0.9614984 0 0.9989371 0.0460928 0 0.9989371 0.04609274 0 0.9989372 0.04609268 0 0.9989373 0.04609274 0 0.9989371 0.0460928 -2.01631e-7 -0.9989371 -0.04609334 0 -0.9989371 -0.0460928 0 -0.9989373 -0.04609274 0 -0.9989372 -0.0460928 2.06988e-7 -0.9989371 -0.04609334 0.271206 0.04436582 -0.9614983 0.1503738 0.0455681 -0.9875785 0.03239828 0.04606795 -0.9984129 -0.03239828 0.04606795 -0.9984129 -0.1503738 0.045569 -0.9875785 0.2712053 -0.04436582 0.9614986 0.1503742 -0.04556912 0.9875784 0.03239864 -0.04606896 0.9984127 -0.03239864 -0.04606896 0.9984127 -0.1503742 -0.04556894 0.9875783 -1 0 0 0 0.9989372 0.04609274 1 0 0 0 -0.9989371 -0.04609268 -0.2712056 0.0443657 -0.9614984 -0.2712056 -0.04436469 0.9614984 0 0.9989371 0.04609274 0 0.9989371 0.04609274 0 0.9989372 0.04609268 0 0.9989373 0.04609274 0 0.9989372 0.04609274 0 -0.9989371 -0.0460928 0 -0.9989371 -0.0460928 -1.88116e-7 -0.9989373 -0.04609328 0 -0.9989372 -0.0460928 0 -0.9989371 -0.0460928 0.2712057 0.0443648 -0.9614985 0.1503742 0.04556804 -0.9875784 0.03239828 0.04606795 -0.9984129 -0.03239828 0.04606795 -0.9984129 -0.1503742 0.04556798 -0.9875785 0.2712056 -0.04436582 0.9614984 0.1503742 -0.04556906 0.9875783 0.03239864 -0.04606896 0.9984127 -0.03239864 -0.04606896 0.9984127 -0.1503742 -0.045569 0.9875785 -1 0 0 0 0.9989371 0.04609268 1 0 0 1.32472e-7 -0.9989371 -0.04609328 -0.2712058 0.04436516 -0.9614984 -0.2712053 -0.04436516 0.9614986 0 0.9989371 0.0460928 0 0.9989371 0.0460928 0 0.9989372 0.04609268 0 0.9989372 0.0460928 0 0.9989371 0.0460928 1.68513e-7 -0.9989372 -0.0460928 0 -0.9989371 -0.0460928 0 -0.9989373 -0.04609274 0 -0.9989372 -0.0460928 1.22732e-7 -0.9989371 -0.0460928 0.2712059 0.04436528 -0.9614984 0.1503738 0.0455681 -0.9875785 0.03239828 0.04606795 -0.9984129 -0.03239828 0.04606795 -0.9984129 -0.1503738 0.04556846 -0.9875784 0.2712053 -0.04436582 0.9614986 0.1503738 -0.0455681 0.9875785 0.03239905 -0.04606896 0.9984127 -0.03239905 -0.04606795 0.9984127 -0.1503738 -0.04556894 0.9875784 -1 0 0 0 1 0 1 0 0 0 -1 0 0 0 -1 0 0 1 -0.9996885 0 -0.02495998 0 0.9996799 -0.02529948 0.9996885 0 -0.02496004 0 -0.9996799 -0.02529948 0 0 -1 0 0 1 -0.9996885 0 -0.02495998 0 0.9996799 -0.02529948 0.9996885 0 -0.02496004 0 -0.9996799 -0.02529948 0 0 -1 0 0 1 -0.9996885 0 -0.02495998 0 0.9996799 -0.02529948 0.9996885 0 -0.02496004 0 -0.9996799 -0.02529948 0 0 -1 0 0 1 -0.9996885 0 -0.02495998 0 0.9996799 -0.02529948 0.9996885 0 -0.02496004 0 -0.9996799 -0.02529948 0 0 -1 0 0 1 -0.9991047 -0.001970767 0.042261 -5.59852e-4 0.9993439 0.03621667 0.997855 0.003049433 -0.06539362 -5.59597e-4 -0.9983773 -0.05694204 -0.05388975 0.0465151 -0.9974628 0.05389195 -0.04651391 0.9974628 0.9991046 -0.001970708 0.042261 5.60175e-4 0.9993438 0.03621667 -0.9978549 0.003049373 -0.06539356 5.59617e-4 -0.9983773 -0.05694204 0.05388975 0.04651433 -0.9974629 -0.05389195 -0.04651391 0.9974628 -1 0 0 0 0.9989371 0.0460928 1 0 0 0 -0.9989371 -0.0460928 -0.2712056 0.04436552 -0.9614984 -0.2712053 -0.04436552 0.9614985 0 0.9989372 0.04609268 0 0.9989372 0.0460928 0 0.9989372 0.04609328 0 0.9989372 0.04609328 1.71435e-7 0.9989371 0.04609328 0 -0.9989373 -0.04609274 0 -0.9989372 -0.0460928 0 -0.9989372 -0.04609274 0 -0.9989372 -0.04609268 0 -0.9989372 -0.04609274 0.2712056 0.04436469 -0.9614984 0.1503742 0.04556912 -0.9875785 0.03239828 0.04606795 -0.9984127 -0.03239822 0.04606896 -0.9984127 -0.1503742 0.04556798 -0.9875784 0.2712053 -0.0443657 0.9614984 0.1503747 -0.04556912 0.9875783 0.03239864 -0.04606902 0.9984127 -0.03239864 -0.04606896 0.9984127 -0.1503746 -0.045569 0.9875783 -1 0 0 -1.67539e-7 0.9989371 0.0460928 1 0 0 0 -0.9989371 -0.04609274 -0.2712056 0.04436552 -0.9614984 -0.2712057 -0.04436457 0.9614985 -1.32472e-7 0.9989372 0.04609328 0 0.9989372 0.0460928 0 0.9989372 0.04609274 0 0.9989372 0.04609274 0 0.9989372 0.04609274 0 -0.9989373 -0.04609274 0 -0.9989372 -0.04609274 -2.08815e-7 -0.9989371 -0.04609334 0 -0.9989372 -0.04609274 2.08449e-7 -0.9989371 -0.04609334 0.2712056 0.04436469 -0.9614985 0.1503742 0.04556912 -0.9875785 0.03239828 0.04606795 -0.9984129 -0.03239828 0.04606896 -0.9984127 -0.1503742 0.04556798 -0.9875784 0.2712056 -0.0443657 0.9614984 0.1503738 -0.04556816 0.9875786 0.03239864 -0.04606896 0.9984127 -0.03239864 -0.04606896 0.9984127 -0.1503738 -0.045569 0.9875784 -1 0 0 0 0.9989371 0.0460928 1 0 0 2.00657e-7 -0.9989371 -0.04609334 -0.271206 0.04436552 -0.9614984 -0.2712053 -0.04436552 0.9614985 0 0.9989372 0.04609268 0 0.9989372 0.0460928 0 0.9989372 0.04609274 0 0.9989372 0.04609268 0 0.9989372 0.04609274 2.35723e-7 -0.9989372 -0.04609268 -2.06501e-7 -0.9989372 -0.04609334 0 -0.9989371 -0.0460928 0 -0.9989372 -0.04609274 0 -0.9989371 -0.0460928 0.271206 0.04436564 -0.9614983 0.1503742 0.04556912 -0.9875785 0.03239828 0.04606795 -0.9984129 -0.03239828 0.04606795 -0.9984129 -0.1503742 0.04556798 -0.9875784 0.2712053 -0.0443657 0.9614984 0.1503742 -0.04556912 0.9875783 0.03239864 -0.04606902 0.9984127 -0.03239864 -0.04606896 0.9984127 -0.1503742 -0.045569 0.9875784 -1 0 0 0 0.9989371 0.04609274 1 0 0 0 -0.9989371 -0.0460928 -0.271206 0.04436457 -0.9614984 -0.2712053 -0.04436552 0.9614985 0 0.9989373 0.04609274 0 0.9989372 0.04609274 0 0.9989372 0.04609274 0 0.9989372 0.04609268 0 0.9989372 0.04609274 0 -0.9989372 -0.04609268 0 -0.9989372 -0.0460928 0 -0.9989371 -0.0460928 1.8702e-7 -0.9989372 -0.04609334 0 -0.9989371 -0.0460928 0.271206 0.04436564 -0.9614983 0.1503742 0.0455681 -0.9875785 0.03239822 0.04606795 -0.9984127 -0.03239822 0.04606795 -0.9984129 -0.1503742 0.04556798 -0.9875784 0.2712053 -0.04436469 0.9614986 0.1503742 -0.04556912 0.9875785 0.03239864 -0.04606896 0.9984127 -0.03239864 -0.04606896 0.9984127 -0.1503742 -0.045569 0.9875783 -1 0 0 0 0.9989371 0.0460928 1 0 0 -1.67539e-7 -0.9989372 -0.0460928 -0.2712059 0.04436504 -0.9614984 -0.2712051 -0.04436552 0.9614985 0 0.9989371 0.04609268 0 0.9989372 0.0460928 0 0.9989372 0.0460928 0 0.9989372 0.04609268 0 0.9989371 0.0460928 -1.32472e-7 -0.9989372 -0.04609328 -1.23706e-7 -0.9989372 -0.0460928 0 -0.9989371 -0.0460928 0 -0.9989372 -0.04609274 0 -0.9989371 -0.0460928 0.2712058 0.04436516 -0.9614984 0.1503741 0.04556864 -0.9875784 0.03239828 0.04606795 -0.9984129 -0.03239828 0.04606795 -0.9984129 -0.150374 0.04556798 -0.9875784 0.2712051 -0.04436516 0.9614986 0.1503742 -0.04556912 0.9875783 0.03239864 -0.04606795 0.9984127 -0.03239864 -0.04606896 0.9984127 -0.1503742 -0.04556798 0.9875784</float_array>
          <technique_common>
            <accessor source="#Cube_001-mesh-normals-array" count="344" stride="3">
              <param name="X" type="float"/>
              <param name="Y" type="float"/>
              <param name="Z" type="float"/>
            </accessor>
          </technique_common>
        </source>
        <source id="Cube_001-mesh-map-0">
          <float_array id="Cube_001-mesh-map-0-array" count="2064">0.1063629 0.4989394 0.05310499 0.4989395 0.05310469 0.06720626 0.5380962 0.4989393 0.5380962 0.5521973 0.1063629 0.5521973 0.5380961 0.06720602 0.5913539 0.06720602 0.591354 0.4989392 0.1063626 0.0672062 0.1063625 0.01394844 0.5380962 0.01394814 0.1063629 0.5521973 0.5380962 0.5521973 0.5380963 0.9839303 0.5380962 0.4989393 0.1063629 0.4989394 0.1063626 0.0672062 0.6859365 0.07058036 0.7117292 0.4113596 0.7466854 0.4096016 0.7897476 0.786237 0.7812153 0.444601 0.746686 0.4446014 0.7897431 0.067954 0.7812154 0.4096016 0.8161717 0.4113597 0.7381578 0.06795406 0.7466854 0.4096016 0.7812154 0.4096016 0.746686 0.4446014 0.7812153 0.444601 0.7812154 0.4096016 0.7897431 0.0156666 0.7381576 0.0156666 0.7381578 0.06795406 0.6859365 0.07058036 0.7117292 0.4113596 0.7466854 0.4096016 0.7897476 0.786237 0.7812153 0.444601 0.746686 0.4446014 0.7897431 0.067954 0.7812154 0.4096016 0.8161717 0.4113597 0.7381578 0.06795406 0.7466854 0.4096016 0.7812154 0.4096016 0.746686 0.4446014 0.7812153 0.444601 0.7812154 0.4096016 0.7897431 0.0156666 0.7381576 0.0156666 0.7381578 0.06795406 0.6859365 0.07058036 0.7117292 0.4113596 0.7466854 0.4096016 0.7897476 0.786237 0.7812153 0.444601 0.746686 0.4446014 0.7897431 0.067954 0.7812154 0.4096016 0.8161717 0.4113597 0.7381578 0.06795406 0.7466854 0.4096016 0.7812154 0.4096016 0.746686 0.4446014 0.7812153 0.444601 0.7812154 0.4096016 0.7897431 0.0156666 0.7381576 0.0156666 0.7381578 0.06795406 0.6859365 0.07058036 0.7117292 0.4113596 0.7466854 0.4096016 0.7897476 0.786237 0.7812153 0.444601 0.746686 0.4446014 0.7897431 0.067954 0.7812154 0.4096016 0.8161717 0.4113597 0.7381578 0.06795406 0.7466854 0.4096016 0.7812154 0.4096016 0.746686 0.4446014 0.7812153 0.444601 0.7812154 0.4096016 0.7897431 0.0156666 0.7381576 0.0156666 0.7381578 0.06795406 0.9403688 0.9402003 0.8998431 0.9410915 0.8946431 0.4927008 0.8998431 0.9410915 0.8545988 0.9410914 0.8597976 0.4927003 0.814073 0.9402004 0.828586 0.4920141 0.8597976 0.4927003 0.8998735 0.01307207 0.8946447 0.461482 0.8597981 0.4614803 0.8946447 0.461482 0.8946431 0.4927008 0.8597976 0.4927003 0.8545988 0.9410914 0.8998431 0.9410915 0.8998431 0.9816269 0.9258541 0.4920145 0.8946431 0.4927008 0.8998431 0.9410915 0.8998431 0.9410915 0.8946431 0.4927008 0.8597976 0.4927003 0.8597976 0.4927003 0.828586 0.4920141 0.814073 0.9402004 0.8597981 0.4614803 0.8946447 0.461482 0.8998735 0.01307207 0.8597981 0.4614803 0.8597976 0.4927003 0.8946431 0.4927008 0.8998431 0.9816269 0.8998431 0.9410915 0.8545988 0.9410914 0.6687672 0.9562017 0.6687673 0.9834709 0.6380736 0.9834712 0.6687354 0.5845724 0.6695606 0.5071359 0.6956235 0.5001906 0.6388694 0.5071313 0.6388751 0.4798655 0.6695635 0.4798708 0.6388885 0.8787617 0.6380733 0.9562018 0.6120097 0.9631507 0.6695775 0.4001361 0.6695635 0.4798708 0.6388751 0.4798655 0.6681928 0.8790333 0.6687672 0.9562017 0.6380733 0.9562018 0.6681928 0.8790333 0.693897 0.8846223 0.6947109 0.9632226 0.6683979 0.8057025 0.694877 0.8084291 0.693897 0.8846223 0.6688155 0.7317458 0.6960956 0.7317998 0.694877 0.8084291 0.6688155 0.7317458 0.6686653 0.6578875 0.6951405 0.6552627 0.6686653 0.6578875 0.6687354 0.5845724 0.694502 0.5790671 0.6394318 0.5842971 0.6137289 0.5787048 0.6129276 0.5001063 0.6392187 0.6576275 0.6127395 0.6548987 0.6137289 0.5787048 0.6387984 0.7315847 0.6115178 0.7315306 0.6127395 0.6548987 0.6387984 0.7315847 0.6389511 0.8054444 0.612475 0.8080711 0.6389511 0.8054444 0.6388885 0.8787617 0.6131212 0.8842701 0.6696432 0.0116012 0.6696299 0.0913285 0.6389457 0.09132331 0.6696299 0.0913285 0.6696173 0.1689502 0.6389331 0.1689452 0.6696173 0.1689502 0.669605 0.2457304 0.6389204 0.2457252 0.669605 0.2457304 0.6695918 0.3225111 0.6389068 0.3225054 0.6695918 0.3225111 0.6695775 0.4001361 0.6388911 0.4001303 0.6695606 0.5071359 0.6687354 0.5845724 0.6394318 0.5842971 0.6687354 0.5845724 0.6686653 0.6578875 0.6392187 0.6576275 0.6686653 0.6578875 0.6688155 0.7317458 0.6387984 0.7315847 0.6688155 0.7317458 0.6683979 0.8057025 0.6389511 0.8054444 0.6683979 0.8057025 0.6681928 0.8790333 0.6388885 0.8787617 0.6687672 0.9562017 0.6687673 0.9834709 0.6380736 0.9834712 0.6687354 0.5845724 0.6695606 0.5071359 0.6956235 0.5001906 0.6388694 0.5071313 0.6388751 0.4798655 0.6695635 0.4798708 0.6388885 0.8787617 0.6380733 0.9562018 0.6120097 0.9631507 0.6695775 0.4001361 0.6695635 0.4798708 0.6388751 0.4798655 0.6681928 0.8790333 0.6687672 0.9562017 0.6380733 0.9562018 0.6681928 0.8790333 0.693897 0.8846223 0.6947109 0.9632226 0.6683979 0.8057025 0.694877 0.8084291 0.693897 0.8846223 0.6688155 0.7317458 0.6960956 0.7317998 0.694877 0.8084291 0.6688155 0.7317458 0.6686653 0.6578875 0.6951405 0.6552627 0.6686653 0.6578875 0.6687354 0.5845724 0.694502 0.5790671 0.6394318 0.5842971 0.6137289 0.5787048 0.6129276 0.5001063 0.6392187 0.6576275 0.6127395 0.6548987 0.6137289 0.5787048 0.6387984 0.7315847 0.6115178 0.7315306 0.6127395 0.6548987 0.6387984 0.7315847 0.6389511 0.8054444 0.612475 0.8080711 0.6389511 0.8054444 0.6388885 0.8787617 0.6131212 0.8842701 0.6696432 0.0116012 0.6696299 0.0913285 0.6389457 0.09132331 0.6696299 0.0913285 0.6696173 0.1689502 0.6389331 0.1689452 0.6696173 0.1689502 0.669605 0.2457304 0.6389204 0.2457252 0.669605 0.2457304 0.6695918 0.3225111 0.6389068 0.3225054 0.6695918 0.3225111 0.6695775 0.4001361 0.6388911 0.4001303 0.6695606 0.5071359 0.6687354 0.5845724 0.6394318 0.5842971 0.6687354 0.5845724 0.6686653 0.6578875 0.6392187 0.6576275 0.6686653 0.6578875 0.6688155 0.7317458 0.6387984 0.7315847 0.6688155 0.7317458 0.6683979 0.8057025 0.6389511 0.8054444 0.6683979 0.8057025 0.6681928 0.8790333 0.6388885 0.8787617 0.6687672 0.9562017 0.6687673 0.9834709 0.6380736 0.9834712 0.6687354 0.5845724 0.6695606 0.5071359 0.6956235 0.5001906 0.6388694 0.5071313 0.6388751 0.4798655 0.6695635 0.4798708 0.6388885 0.8787617 0.6380733 0.9562018 0.6120097 0.9631507 0.6695775 0.4001361 0.6695635 0.4798708 0.6388751 0.4798655 0.6681928 0.8790333 0.6687672 0.9562017 0.6380733 0.9562018 0.6681928 0.8790333 0.693897 0.8846223 0.6947109 0.9632226 0.6683979 0.8057025 0.694877 0.8084291 0.693897 0.8846223 0.6688155 0.7317458 0.6960956 0.7317998 0.694877 0.8084291 0.6688155 0.7317458 0.6686653 0.6578875 0.6951405 0.6552627 0.6686653 0.6578875 0.6687354 0.5845724 0.694502 0.5790671 0.6394318 0.5842971 0.6137289 0.5787048 0.6129276 0.5001063 0.6392187 0.6576275 0.6127395 0.6548987 0.6137289 0.5787048 0.6387984 0.7315847 0.6115178 0.7315306 0.6127395 0.6548987 0.6387984 0.7315847 0.6389511 0.8054444 0.612475 0.8080711 0.6389511 0.8054444 0.6388885 0.8787617 0.6131212 0.8842701 0.6696432 0.0116012 0.6696299 0.0913285 0.6389457 0.09132331 0.6696299 0.0913285 0.6696173 0.1689502 0.6389331 0.1689452 0.6696173 0.1689502 0.669605 0.2457304 0.6389204 0.2457252 0.669605 0.2457304 0.6695918 0.3225111 0.6389068 0.3225054 0.6695918 0.3225111 0.6695775 0.4001361 0.6388911 0.4001303 0.6695606 0.5071359 0.6687354 0.5845724 0.6394318 0.5842971 0.6687354 0.5845724 0.6686653 0.6578875 0.6392187 0.6576275 0.6686653 0.6578875 0.6688155 0.7317458 0.6387984 0.7315847 0.6688155 0.7317458 0.6683979 0.8057025 0.6389511 0.8054444 0.6683979 0.8057025 0.6681928 0.8790333 0.6388885 0.8787617 0.6687672 0.9562017 0.6687673 0.9834709 0.6380736 0.9834712 0.6687354 0.5845724 0.6695606 0.5071359 0.6956235 0.5001906 0.6388694 0.5071313 0.6388751 0.4798655 0.6695635 0.4798708 0.6388885 0.8787617 0.6380733 0.9562018 0.6120097 0.9631507 0.6695775 0.4001361 0.6695635 0.4798708 0.6388751 0.4798655 0.6681928 0.8790333 0.6687672 0.9562017 0.6380733 0.9562018 0.6681928 0.8790333 0.693897 0.8846223 0.6947109 0.9632226 0.6683979 0.8057025 0.694877 0.8084291 0.693897 0.8846223 0.6688155 0.7317458 0.6960956 0.7317998 0.694877 0.8084291 0.6688155 0.7317458 0.6686653 0.6578875 0.6951405 0.6552627 0.6686653 0.6578875 0.6687354 0.5845724 0.694502 0.5790671 0.6394318 0.5842971 0.6137289 0.5787048 0.6129276 0.5001063 0.6392187 0.6576275 0.6127395 0.6548987 0.6137289 0.5787048 0.6387984 0.7315847 0.6115178 0.7315306 0.6127395 0.6548987 0.6387984 0.7315847 0.6389511 0.8054444 0.612475 0.8080711 0.6389511 0.8054444 0.6388885 0.8787617 0.6131212 0.8842701 0.6696432 0.0116012 0.6696299 0.0913285 0.6389457 0.09132331 0.6696299 0.0913285 0.6696173 0.1689502 0.6389331 0.1689452 0.6696173 0.1689502 0.669605 0.2457304 0.6389204 0.2457252 0.669605 0.2457304 0.6695918 0.3225111 0.6389068 0.3225054 0.6695918 0.3225111 0.6695775 0.4001361 0.6388911 0.4001303 0.6695606 0.5071359 0.6687354 0.5845724 0.6394318 0.5842971 0.6687354 0.5845724 0.6686653 0.6578875 0.6392187 0.6576275 0.6686653 0.6578875 0.6688155 0.7317458 0.6387984 0.7315847 0.6688155 0.7317458 0.6683979 0.8057025 0.6389511 0.8054444 0.6683979 0.8057025 0.6681928 0.8790333 0.6388885 0.8787617 0.6687672 0.9562017 0.6687673 0.9834709 0.6380736 0.9834712 0.6687354 0.5845724 0.6695606 0.5071359 0.6956235 0.5001906 0.6388694 0.5071313 0.6388751 0.4798655 0.6695635 0.4798708 0.6388885 0.8787617 0.6380733 0.9562018 0.6120097 0.9631507 0.6695775 0.4001361 0.6695635 0.4798708 0.6388751 0.4798655 0.6681928 0.8790333 0.6687672 0.9562017 0.6380733 0.9562018 0.6681928 0.8790333 0.693897 0.8846223 0.6947109 0.9632226 0.6683979 0.8057025 0.694877 0.8084291 0.693897 0.8846223 0.6688155 0.7317458 0.6960956 0.7317998 0.694877 0.8084291 0.6688155 0.7317458 0.6686653 0.6578875 0.6951405 0.6552627 0.6686653 0.6578875 0.6687354 0.5845724 0.694502 0.5790671 0.6394318 0.5842971 0.6137289 0.5787048 0.6129276 0.5001063 0.6392187 0.6576275 0.6127395 0.6548987 0.6137289 0.5787048 0.6387984 0.7315847 0.6115178 0.7315306 0.6127395 0.6548987 0.6387984 0.7315847 0.6389511 0.8054444 0.612475 0.8080711 0.6389511 0.8054444 0.6388885 0.8787617 0.6131212 0.8842701 0.6696432 0.0116012 0.6696299 0.0913285 0.6389457 0.09132331 0.6696299 0.0913285 0.6696173 0.1689502 0.6389331 0.1689452 0.6696173 0.1689502 0.669605 0.2457304 0.6389204 0.2457252 0.669605 0.2457304 0.6695918 0.3225111 0.6389068 0.3225054 0.6695918 0.3225111 0.6695775 0.4001361 0.6388911 0.4001303 0.6695606 0.5071359 0.6687354 0.5845724 0.6394318 0.5842971 0.6687354 0.5845724 0.6686653 0.6578875 0.6392187 0.6576275 0.6686653 0.6578875 0.6688155 0.7317458 0.6387984 0.7315847 0.6688155 0.7317458 0.6683979 0.8057025 0.6389511 0.8054444 0.6683979 0.8057025 0.6681928 0.8790333 0.6388885 0.8787617 0.1063626 0.0672062 0.1063629 0.4989394 0.05310469 0.06720626 0.1063629 0.4989394 0.5380962 0.4989393 0.1063629 0.5521973 0.5380962 0.4989393 0.5380961 0.06720602 0.591354 0.4989392 0.5380961 0.06720602 0.1063626 0.0672062 0.5380962 0.01394814 0.1063631 0.9839303 0.1063629 0.5521973 0.5380963 0.9839303 0.5380961 0.06720602 0.5380962 0.4989393 0.1063626 0.0672062 0.7381578 0.06795406 0.6859365 0.07058036 0.7466854 0.4096016 0.738164 0.7862378 0.7897476 0.786237 0.746686 0.4446014 0.8419644 0.07058024 0.7897431 0.067954 0.8161717 0.4113597 0.7897431 0.067954 0.7381578 0.06795406 0.7812154 0.4096016 0.7466854 0.4096016 0.746686 0.4446014 0.7812154 0.4096016 0.7897431 0.067954 0.7897431 0.0156666 0.7381578 0.06795406 0.7381578 0.06795406 0.6859365 0.07058036 0.7466854 0.4096016 0.738164 0.7862378 0.7897476 0.786237 0.746686 0.4446014 0.8419644 0.07058024 0.7897431 0.067954 0.8161717 0.4113597 0.7897431 0.067954 0.7381578 0.06795406 0.7812154 0.4096016 0.7466854 0.4096016 0.746686 0.4446014 0.7812154 0.4096016 0.7897431 0.067954 0.7897431 0.0156666 0.7381578 0.06795406 0.7381578 0.06795406 0.6859365 0.07058036 0.7466854 0.4096016 0.738164 0.7862378 0.7897476 0.786237 0.746686 0.4446014 0.8419644 0.07058024 0.7897431 0.067954 0.8161717 0.4113597 0.7897431 0.067954 0.7381578 0.06795406 0.7812154 0.4096016 0.7466854 0.4096016 0.746686 0.4446014 0.7812154 0.4096016 0.7897431 0.067954 0.7897431 0.0156666 0.7381578 0.06795406 0.7381578 0.06795406 0.6859365 0.07058036 0.7466854 0.4096016 0.738164 0.7862378 0.7897476 0.786237 0.746686 0.4446014 0.8419644 0.07058024 0.7897431 0.067954 0.8161717 0.4113597 0.7897431 0.067954 0.7381578 0.06795406 0.7812154 0.4096016 0.7466854 0.4096016 0.746686 0.4446014 0.7812154 0.4096016 0.7897431 0.067954 0.7897431 0.0156666 0.7381578 0.06795406 0.9258541 0.4920145 0.9403688 0.9402003 0.8946431 0.4927008 0.8946431 0.4927008 0.8998431 0.9410915 0.8597976 0.4927003 0.8545988 0.9410914 0.814073 0.9402004 0.8597976 0.4927003 0.8546271 0.01306927 0.8998735 0.01307207 0.8597981 0.4614803 0.8597981 0.4614803 0.8946447 0.461482 0.8597976 0.4927003 0.8545988 0.981627 0.8545988 0.9410914 0.8998431 0.9816269 0.9403688 0.9402003 0.9258541 0.4920145 0.8998431 0.9410915 0.8545988 0.9410914 0.8998431 0.9410915 0.8597976 0.4927003 0.8545988 0.9410914 0.8597976 0.4927003 0.814073 0.9402004 0.8546271 0.01306927 0.8597981 0.4614803 0.8998735 0.01307207 0.8946447 0.461482 0.8597981 0.4614803 0.8946431 0.4927008 0.8545988 0.981627 0.8998431 0.9816269 0.8545988 0.9410914 0.6380733 0.9562018 0.6687672 0.9562017 0.6380736 0.9834712 0.694502 0.5790671 0.6687354 0.5845724 0.6956235 0.5001906 0.6695606 0.5071359 0.6388694 0.5071313 0.6695635 0.4798708 0.6131212 0.8842701 0.6388885 0.8787617 0.6120097 0.9631507 0.6388911 0.4001303 0.6695775 0.4001361 0.6388751 0.4798655 0.6388885 0.8787617 0.6681928 0.8790333 0.6380733 0.9562018 0.6687672 0.9562017 0.6681928 0.8790333 0.6947109 0.9632226 0.6681928 0.8790333 0.6683979 0.8057025 0.693897 0.8846223 0.6683979 0.8057025 0.6688155 0.7317458 0.694877 0.8084291 0.6960956 0.7317998 0.6688155 0.7317458 0.6951405 0.6552627 0.6951405 0.6552627 0.6686653 0.6578875 0.694502 0.5790671 0.6388694 0.5071313 0.6394318 0.5842971 0.6129276 0.5001063 0.6394318 0.5842971 0.6392187 0.6576275 0.6137289 0.5787048 0.6392187 0.6576275 0.6387984 0.7315847 0.6127395 0.6548987 0.6115178 0.7315306 0.6387984 0.7315847 0.612475 0.8080711 0.612475 0.8080711 0.6389511 0.8054444 0.6131212 0.8842701 0.6389591 0.01159596 0.6696432 0.0116012 0.6389457 0.09132331 0.6389457 0.09132331 0.6696299 0.0913285 0.6389331 0.1689452 0.6389331 0.1689452 0.6696173 0.1689502 0.6389204 0.2457252 0.6389204 0.2457252 0.669605 0.2457304 0.6389068 0.3225054 0.6389068 0.3225054 0.6695918 0.3225111 0.6388911 0.4001303 0.6388694 0.5071313 0.6695606 0.5071359 0.6394318 0.5842971 0.6394318 0.5842971 0.6687354 0.5845724 0.6392187 0.6576275 0.6392187 0.6576275 0.6686653 0.6578875 0.6387984 0.7315847 0.6387984 0.7315847 0.6688155 0.7317458 0.6389511 0.8054444 0.6389511 0.8054444 0.6683979 0.8057025 0.6388885 0.8787617 0.6380733 0.9562018 0.6687672 0.9562017 0.6380736 0.9834712 0.694502 0.5790671 0.6687354 0.5845724 0.6956235 0.5001906 0.6695606 0.5071359 0.6388694 0.5071313 0.6695635 0.4798708 0.6131212 0.8842701 0.6388885 0.8787617 0.6120097 0.9631507 0.6388911 0.4001303 0.6695775 0.4001361 0.6388751 0.4798655 0.6388885 0.8787617 0.6681928 0.8790333 0.6380733 0.9562018 0.6687672 0.9562017 0.6681928 0.8790333 0.6947109 0.9632226 0.6681928 0.8790333 0.6683979 0.8057025 0.693897 0.8846223 0.6683979 0.8057025 0.6688155 0.7317458 0.694877 0.8084291 0.6960956 0.7317998 0.6688155 0.7317458 0.6951405 0.6552627 0.6951405 0.6552627 0.6686653 0.6578875 0.694502 0.5790671 0.6388694 0.5071313 0.6394318 0.5842971 0.6129276 0.5001063 0.6394318 0.5842971 0.6392187 0.6576275 0.6137289 0.5787048 0.6392187 0.6576275 0.6387984 0.7315847 0.6127395 0.6548987 0.6115178 0.7315306 0.6387984 0.7315847 0.612475 0.8080711 0.612475 0.8080711 0.6389511 0.8054444 0.6131212 0.8842701 0.6389591 0.01159596 0.6696432 0.0116012 0.6389457 0.09132331 0.6389457 0.09132331 0.6696299 0.0913285 0.6389331 0.1689452 0.6389331 0.1689452 0.6696173 0.1689502 0.6389204 0.2457252 0.6389204 0.2457252 0.669605 0.2457304 0.6389068 0.3225054 0.6389068 0.3225054 0.6695918 0.3225111 0.6388911 0.4001303 0.6388694 0.5071313 0.6695606 0.5071359 0.6394318 0.5842971 0.6394318 0.5842971 0.6687354 0.5845724 0.6392187 0.6576275 0.6392187 0.6576275 0.6686653 0.6578875 0.6387984 0.7315847 0.6387984 0.7315847 0.6688155 0.7317458 0.6389511 0.8054444 0.6389511 0.8054444 0.6683979 0.8057025 0.6388885 0.8787617 0.6380733 0.9562018 0.6687672 0.9562017 0.6380736 0.9834712 0.694502 0.5790671 0.6687354 0.5845724 0.6956235 0.5001906 0.6695606 0.5071359 0.6388694 0.5071313 0.6695635 0.4798708 0.6131212 0.8842701 0.6388885 0.8787617 0.6120097 0.9631507 0.6388911 0.4001303 0.6695775 0.4001361 0.6388751 0.4798655 0.6388885 0.8787617 0.6681928 0.8790333 0.6380733 0.9562018 0.6687672 0.9562017 0.6681928 0.8790333 0.6947109 0.9632226 0.6681928 0.8790333 0.6683979 0.8057025 0.693897 0.8846223 0.6683979 0.8057025 0.6688155 0.7317458 0.694877 0.8084291 0.6960956 0.7317998 0.6688155 0.7317458 0.6951405 0.6552627 0.6951405 0.6552627 0.6686653 0.6578875 0.694502 0.5790671 0.6388694 0.5071313 0.6394318 0.5842971 0.6129276 0.5001063 0.6394318 0.5842971 0.6392187 0.6576275 0.6137289 0.5787048 0.6392187 0.6576275 0.6387984 0.7315847 0.6127395 0.6548987 0.6115178 0.7315306 0.6387984 0.7315847 0.612475 0.8080711 0.612475 0.8080711 0.6389511 0.8054444 0.6131212 0.8842701 0.6389591 0.01159596 0.6696432 0.0116012 0.6389457 0.09132331 0.6389457 0.09132331 0.6696299 0.0913285 0.6389331 0.1689452 0.6389331 0.1689452 0.6696173 0.1689502 0.6389204 0.2457252 0.6389204 0.2457252 0.669605 0.2457304 0.6389068 0.3225054 0.6389068 0.3225054 0.6695918 0.3225111 0.6388911 0.4001303 0.6388694 0.5071313 0.6695606 0.5071359 0.6394318 0.5842971 0.6394318 0.5842971 0.6687354 0.5845724 0.6392187 0.6576275 0.6392187 0.6576275 0.6686653 0.6578875 0.6387984 0.7315847 0.6387984 0.7315847 0.6688155 0.7317458 0.6389511 0.8054444 0.6389511 0.8054444 0.6683979 0.8057025 0.6388885 0.8787617 0.6380733 0.9562018 0.6687672 0.9562017 0.6380736 0.9834712 0.694502 0.5790671 0.6687354 0.5845724 0.6956235 0.5001906 0.6695606 0.5071359 0.6388694 0.5071313 0.6695635 0.4798708 0.6131212 0.8842701 0.6388885 0.8787617 0.6120097 0.9631507 0.6388911 0.4001303 0.6695775 0.4001361 0.6388751 0.4798655 0.6388885 0.8787617 0.6681928 0.8790333 0.6380733 0.9562018 0.6687672 0.9562017 0.6681928 0.8790333 0.6947109 0.9632226 0.6681928 0.8790333 0.6683979 0.8057025 0.693897 0.8846223 0.6683979 0.8057025 0.6688155 0.7317458 0.694877 0.8084291 0.6960956 0.7317998 0.6688155 0.7317458 0.6951405 0.6552627 0.6951405 0.6552627 0.6686653 0.6578875 0.694502 0.5790671 0.6388694 0.5071313 0.6394318 0.5842971 0.6129276 0.5001063 0.6394318 0.5842971 0.6392187 0.6576275 0.6137289 0.5787048 0.6392187 0.6576275 0.6387984 0.7315847 0.6127395 0.6548987 0.6115178 0.7315306 0.6387984 0.7315847 0.612475 0.8080711 0.612475 0.8080711 0.6389511 0.8054444 0.6131212 0.8842701 0.6389591 0.01159596 0.6696432 0.0116012 0.6389457 0.09132331 0.6389457 0.09132331 0.6696299 0.0913285 0.6389331 0.1689452 0.6389331 0.1689452 0.6696173 0.1689502 0.6389204 0.2457252 0.6389204 0.2457252 0.669605 0.2457304 0.6389068 0.3225054 0.6389068 0.3225054 0.6695918 0.3225111 0.6388911 0.4001303 0.6388694 0.5071313 0.6695606 0.5071359 0.6394318 0.5842971 0.6394318 0.5842971 0.6687354 0.5845724 0.6392187 0.6576275 0.6392187 0.6576275 0.6686653 0.6578875 0.6387984 0.7315847 0.6387984 0.7315847 0.6688155 0.7317458 0.6389511 0.8054444 0.6389511 0.8054444 0.6683979 0.8057025 0.6388885 0.8787617 0.6380733 0.9562018 0.6687672 0.9562017 0.6380736 0.9834712 0.694502 0.5790671 0.6687354 0.5845724 0.6956235 0.5001906 0.6695606 0.5071359 0.6388694 0.5071313 0.6695635 0.4798708 0.6131212 0.8842701 0.6388885 0.8787617 0.6120097 0.9631507 0.6388911 0.4001303 0.6695775 0.4001361 0.6388751 0.4798655 0.6388885 0.8787617 0.6681928 0.8790333 0.6380733 0.9562018 0.6687672 0.9562017 0.6681928 0.8790333 0.6947109 0.9632226 0.6681928 0.8790333 0.6683979 0.8057025 0.693897 0.8846223 0.6683979 0.8057025 0.6688155 0.7317458 0.694877 0.8084291 0.6960956 0.7317998 0.6688155 0.7317458 0.6951405 0.6552627 0.6951405 0.6552627 0.6686653 0.6578875 0.694502 0.5790671 0.6388694 0.5071313 0.6394318 0.5842971 0.6129276 0.5001063 0.6394318 0.5842971 0.6392187 0.6576275 0.6137289 0.5787048 0.6392187 0.6576275 0.6387984 0.7315847 0.6127395 0.6548987 0.6115178 0.7315306 0.6387984 0.7315847 0.612475 0.8080711 0.612475 0.8080711 0.6389511 0.8054444 0.6131212 0.8842701 0.6389591 0.01159596 0.6696432 0.0116012 0.6389457 0.09132331 0.6389457 0.09132331 0.6696299 0.0913285 0.6389331 0.1689452 0.6389331 0.1689452 0.6696173 0.1689502 0.6389204 0.2457252 0.6389204 0.2457252 0.669605 0.2457304 0.6389068 0.3225054 0.6389068 0.3225054 0.6695918 0.3225111 0.6388911 0.4001303 0.6388694 0.5071313 0.6695606 0.5071359 0.6394318 0.5842971 0.6394318 0.5842971 0.6687354 0.5845724 0.6392187 0.6576275 0.6392187 0.6576275 0.6686653 0.6578875 0.6387984 0.7315847 0.6387984 0.7315847 0.6688155 0.7317458 0.6389511 0.8054444 0.6389511 0.8054444 0.6683979 0.8057025 0.6388885 0.8787617</float_array>
          <technique_common>
            <accessor source="#Cube_001-mesh-map-0-array" count="1032" stride="2">
              <param name="S" type="float"/>
              <param name="T" type="float"/>
            </accessor>
          </technique_common>
        </source>
        <vertices id="Cube_001-mesh-vertices">
          <input semantic="POSITION" source="#Cube_001-mesh-positions"/>
        </vertices>
        <polylist material="Material_003-material" count="344">
          <input semantic="VERTEX" source="#Cube_001-mesh-vertices" offset="0"/>
          <input semantic="NORMAL" source="#Cube_001-mesh-normals" offset="1"/>
          <input semantic="TEXCOORD" source="#Cube_001-mesh-map-0" offset="2" set="0"/>
          <vcount>3 3 3 3 3 3 3 3 3 3 3 3 3 3 3 3 3 3 3 3 3 3 3 3 3 3 3 3 3 3 3 3 3 3 3 3 3 3 3 3 3 3 3 3 3 3 3 3 3 3 3 3 3 3 3 3 3 3 3 3 3 3 3 3 3 3 3 3 3 3 3 3 3 3 3 3 3 3 3 3 3 3 3 3 3 3 3 3 3 3 3 3 3 3 3 3 3 3 3 3 3 3 3 3 3 3 3 3 3 3 3 3 3 3 3 3 3 3 3 3 3 3 3 3 3 3 3 3 3 3 3 3 3 3 3 3 3 3 3 3 3 3 3 3 3 3 3 3 3 3 3 3 3 3 3 3 3 3 3 3 3 3 3 3 3 3 3 3 3 3 3 3 3 3 3 3 3 3 3 3 3 3 3 3 3 3 3 3 3 3 3 3 3 3 3 3 3 3 3 3 3 3 3 3 3 3 3 3 3 3 3 3 3 3 3 3 3 3 3 3 3 3 3 3 3 3 3 3 3 3 3 3 3 3 3 3 3 3 3 3 3 3 3 3 3 3 3 3 3 3 3 3 3 3 3 3 3 3 3 3 3 3 3 3 3 3 3 3 3 3 3 3 3 3 3 3 3 3 3 3 3 3 3 3 3 3 3 3 3 3 3 3 3 3 3 3 3 3 3 3 3 3 3 3 3 3 3 3 3 3 3 3 3 3 3 3 3 3 3 3 3 3 3 3 3 3 3 3 3 3 3 3 3 3 3 3 3 3 3 3 3 3 3 3 </vcount>
          <p>5 0 0 1 0 1 0 0 2 6 1 3 2 1 4 1 1 5 7 2 6 3 2 7 2 2 8 4 3 9 0 3 10 3 3 11 1 4 12 2 4 13 3 4 14 6 5 15 5 5 16 4 5 17 13 6 18 9 6 19 8 6 20 14 7 21 10 7 22 9 7 23 15 8 24 11 8 25 10 8 26 12 9 27 8 9 28 11 9 29 9 10 30 10 10 31 11 10 32 14 11 33 13 11 34 12 11 35 21 12 36 17 12 37 16 12 38 22 13 39 18 13 40 17 13 41 23 14 42 19 14 43 18 14 44 20 15 45 16 15 46 19 15 47 17 16 48 18 16 49 19 16 50 22 17 51 21 17 52 20 17 53 29 18 54 25 18 55 24 18 56 30 19 57 26 19 58 25 19 59 31 20 60 27 20 61 26 20 62 28 21 63 24 21 64 27 21 65 25 22 66 26 22 67 27 22 68 30 23 69 29 23 70 28 23 71 37 24 72 33 24 73 32 24 74 38 25 75 34 25 76 33 25 77 39 26 78 35 26 79 34 26 80 36 27 81 32 27 82 35 27 83 33 28 84 34 28 85 35 28 86 38 29 87 37 29 88 36 29 89 44 30 90 45 30 91 41 30 92 45 31 93 46 31 94 42 31 95 47 32 96 43 32 97 42 32 98 44 33 99 40 33 100 43 33 101 40 34 102 41 34 103 42 34 104 46 35 105 45 35 106 44 35 107 48 36 108 49 36 109 53 36 110 53 37 111 49 37 112 50 37 113 50 38 114 51 38 115 55 38 116 51 39 117 48 39 118 52 39 119 51 40 120 50 40 121 49 40 122 52 41 123 53 41 124 54 41 125 61 42 126 57 42 127 56 42 128 68 43 129 62 43 130 58 43 131 63 44 132 59 44 133 58 44 134 78 45 135 60 45 136 56 45 137 69 46 138 58 46 139 59 46 140 64 47 141 61 47 142 60 47 143 64 48 144 73 48 145 57 48 146 65 49 147 72 49 148 73 49 149 66 50 150 71 50 151 72 50 152 66 51 153 67 51 154 70 51 155 67 52 156 68 52 157 69 52 158 74 53 159 83 53 160 59 53 161 75 54 162 82 54 163 83 54 164 76 55 165 81 55 166 82 55 167 76 56 168 77 56 169 80 56 170 77 57 171 78 57 172 79 57 173 57 58 174 73 58 175 79 58 176 73 59 177 72 59 178 80 59 179 72 60 180 71 60 181 81 60 182 71 61 183 70 61 184 82 61 185 70 62 186 69 62 187 83 62 188 62 63 189 68 63 190 74 63 191 68 64 192 67 64 193 75 64 194 67 65 195 66 65 196 76 65 197 66 66 198 65 66 199 77 66 200 65 67 201 64 67 202 78 67 203 89 68 204 85 68 205 84 68 206 96 69 207 90 69 208 86 69 209 91 70 210 87 70 211 86 70 212 106 71 213 88 71 214 84 71 215 97 72 216 86 72 217 87 72 218 92 73 219 89 73 220 88 73 221 92 74 222 101 74 223 85 74 224 93 75 225 100 75 226 101 75 227 94 76 228 99 76 229 100 76 230 94 77 231 95 77 232 98 77 233 95 78 234 96 78 235 97 78 236 102 79 237 111 79 238 87 79 239 103 80 240 110 80 241 111 80 242 104 81 243 109 81 244 110 81 245 104 82 246 105 82 247 108 82 248 105 83 249 106 83 250 107 83 251 85 84 252 101 84 253 107 84 254 101 85 255 100 85 256 108 85 257 100 86 258 99 86 259 109 86 260 99 87 261 98 87 262 110 87 263 98 88 264 97 88 265 111 88 266 90 89 267 96 89 268 102 89 269 96 90 270 95 90 271 103 90 272 95 91 273 94 91 274 104 91 275 94 92 276 93 92 277 105 92 278 93 93 279 92 93 280 106 93 281 117 94 282 113 94 283 112 94 284 124 95 285 118 95 286 114 95 287 119 96 288 115 96 289 114 96 290 134 97 291 116 97 292 112 97 293 125 98 294 114 98 295 115 98 296 120 99 297 117 99 298 116 99 299 120 100 300 129 100 301 113 100 302 121 101 303 128 101 304 129 101 305 122 102 306 127 102 307 128 102 308 122 103 309 123 103 310 126 103 311 123 104 312 124 104 313 125 104 314 130 105 315 139 105 316 115 105 317 131 106 318 138 106 319 139 106 320 132 107 321 137 107 322 138 107 323 132 108 324 133 108 325 136 108 326 133 109 327 134 109 328 135 109 329 113 110 330 129 110 331 135 110 332 129 111 333 128 111 334 136 111 335 128 112 336 127 112 337 137 112 338 127 113 339 126 113 340 138 113 341 126 114 342 125 114 343 139 114 344 118 115 345 124 115 346 130 115 347 124 116 348 123 116 349 131 116 350 123 117 351 122 117 352 132 117 353 122 118 354 121 118 355 133 118 356 121 119 357 120 119 358 134 119 359 145 120 360 141 120 361 140 120 362 152 121 363 146 121 364 142 121 365 147 122 366 143 122 367 142 122 368 162 123 369 144 123 370 140 123 371 153 124 372 142 124 373 143 124 374 148 125 375 145 125 376 144 125 377 148 126 378 157 126 379 141 126 380 149 127 381 156 127 382 157 127 383 150 128 384 155 128 385 156 128 386 150 129 387 151 129 388 154 129 389 151 130 390 152 130 391 153 130 392 158 131 393 167 131 394 143 131 395 159 132 396 166 132 397 167 132 398 160 133 399 165 133 400 166 133 401 160 134 402 161 134 403 164 134 404 161 135 405 162 135 406 163 135 407 141 136 408 157 136 409 163 136 410 157 137 411 156 137 412 164 137 413 156 138 414 155 138 415 165 138 416 155 139 417 154 139 418 166 139 419 154 140 420 153 140 421 167 140 422 146 141 423 152 141 424 158 141 425 152 142 426 151 142 427 159 142 428 151 143 429 150 143 430 160 143 431 150 144 432 149 144 433 161 144 434 149 145 435 148 145 436 162 145 437 173 146 438 169 146 439 168 146 440 180 147 441 174 147 442 170 147 443 175 148 444 171 148 445 170 148 446 190 149 447 172 149 448 168 149 449 181 150 450 170 150 451 171 150 452 176 151 453 173 151 454 172 151 455 176 152 456 185 152 457 169 152 458 177 153 459 184 153 460 185 153 461 178 154 462 183 154 463 184 154 464 178 155 465 179 155 466 182 155 467 179 156 468 180 156 469 181 156 470 186 157 471 195 157 472 171 157 473 187 158 474 194 158 475 195 158 476 188 159 477 193 159 478 194 159 479 188 160 480 189 160 481 192 160 482 189 161 483 190 161 484 191 161 485 169 162 486 185 162 487 191 162 488 185 163 489 184 163 490 192 163 491 184 164 492 183 164 493 193 164 494 183 165 495 182 165 496 194 165 497 182 166 498 181 166 499 195 166 500 174 167 501 180 167 502 186 167 503 180 168 504 179 168 505 187 168 506 179 169 507 178 169 508 188 169 509 178 170 510 177 170 511 189 170 512 177 171 513 176 171 514 190 171 515 4 172 516 5 172 517 0 172 518 5 173 519 6 173 520 1 173 521 6 174 522 7 174 523 2 174 524 7 175 525 4 175 526 3 175 527 0 176 528 1 176 529 3 176 530 7 177 531 6 177 532 4 177 533 12 178 534 13 178 535 8 178 536 13 179 537 14 179 538 9 179 539 14 180 540 15 180 541 10 180 542 15 181 543 12 181 544 11 181 545 8 182 546 9 182 547 11 182 548 15 183 549 14 183 550 12 183 551 20 184 552 21 184 553 16 184 554 21 185 555 22 185 556 17 185 557 22 186 558 23 186 559 18 186 560 23 187 561 20 187 562 19 187 563 16 188 564 17 188 565 19 188 566 23 189 567 22 189 568 20 189 569 28 190 570 29 190 571 24 190 572 29 191 573 30 191 574 25 191 575 30 192 576 31 192 577 26 192 578 31 193 579 28 193 580 27 193 581 24 194 582 25 194 583 27 194 584 31 195 585 30 195 586 28 195 587 36 196 588 37 196 589 32 196 590 37 197 591 38 197 592 33 197 593 38 198 594 39 198 595 34 198 596 39 199 597 36 199 598 35 199 599 32 200 600 33 200 601 35 200 602 39 201 603 38 201 604 36 201 605 40 202 606 44 202 607 41 202 608 41 203 609 45 203 610 42 203 611 46 204 612 47 204 613 42 204 614 47 205 615 44 205 616 43 205 617 43 206 618 40 206 619 42 206 620 47 207 621 46 207 622 44 207 623 52 208 624 48 208 625 53 208 626 54 209 627 53 209 628 50 209 629 54 210 630 50 210 631 55 210 632 55 211 633 51 211 634 52 211 635 48 212 636 51 212 637 49 212 638 55 213 639 52 213 640 54 213 641 60 214 642 61 214 643 56 214 644 69 215 645 68 215 646 58 215 647 62 216 648 63 216 649 58 216 650 79 217 651 78 217 652 56 217 653 83 218 654 69 218 655 59 218 656 78 219 657 64 219 658 60 219 659 61 220 660 64 220 661 57 220 662 64 221 663 65 221 664 73 221 665 65 222 666 66 222 667 72 222 668 71 223 669 66 223 670 70 223 671 70 224 672 67 224 673 69 224 674 63 225 675 74 225 676 59 225 677 74 226 678 75 226 679 83 226 680 75 227 681 76 227 682 82 227 683 81 228 684 76 228 685 80 228 686 80 229 687 77 229 688 79 229 689 56 230 690 57 230 691 79 230 692 79 231 693 73 231 694 80 231 695 80 232 696 72 232 697 81 232 698 81 233 699 71 233 700 82 233 701 82 234 702 70 234 703 83 234 704 63 235 705 62 235 706 74 235 707 74 236 708 68 236 709 75 236 710 75 237 711 67 237 712 76 237 713 76 238 714 66 238 715 77 238 716 77 239 717 65 239 718 78 239 719 88 240 720 89 240 721 84 240 722 97 241 723 96 241 724 86 241 725 90 242 726 91 242 727 86 242 728 107 243 729 106 243 730 84 243 731 111 244 732 97 244 733 87 244 734 106 245 735 92 245 736 88 245 737 89 246 738 92 246 739 85 246 740 92 247 741 93 247 742 101 247 743 93 248 744 94 248 745 100 248 746 99 249 747 94 249 748 98 249 749 98 250 750 95 250 751 97 250 752 91 251 753 102 251 754 87 251 755 102 252 756 103 252 757 111 252 758 103 253 759 104 253 760 110 253 761 109 254 762 104 254 763 108 254 764 108 255 765 105 255 766 107 255 767 84 256 768 85 256 769 107 256 770 107 257 771 101 257 772 108 257 773 108 258 774 100 258 775 109 258 776 109 259 777 99 259 778 110 259 779 110 260 780 98 260 781 111 260 782 91 261 783 90 261 784 102 261 785 102 262 786 96 262 787 103 262 788 103 263 789 95 263 790 104 263 791 104 264 792 94 264 793 105 264 794 105 265 795 93 265 796 106 265 797 116 266 798 117 266 799 112 266 800 125 267 801 124 267 802 114 267 803 118 268 804 119 268 805 114 268 806 135 269 807 134 269 808 112 269 809 139 270 810 125 270 811 115 270 812 134 271 813 120 271 814 116 271 815 117 272 816 120 272 817 113 272 818 120 273 819 121 273 820 129 273 821 121 274 822 122 274 823 128 274 824 127 275 825 122 275 826 126 275 827 126 276 828 123 276 829 125 276 830 119 277 831 130 277 832 115 277 833 130 278 834 131 278 835 139 278 836 131 279 837 132 279 838 138 279 839 137 280 840 132 280 841 136 280 842 136 281 843 133 281 844 135 281 845 112 282 846 113 282 847 135 282 848 135 283 849 129 283 850 136 283 851 136 284 852 128 284 853 137 284 854 137 285 855 127 285 856 138 285 857 138 286 858 126 286 859 139 286 860 119 287 861 118 287 862 130 287 863 130 288 864 124 288 865 131 288 866 131 289 867 123 289 868 132 289 869 132 290 870 122 290 871 133 290 872 133 291 873 121 291 874 134 291 875 144 292 876 145 292 877 140 292 878 153 293 879 152 293 880 142 293 881 146 294 882 147 294 883 142 294 884 163 295 885 162 295 886 140 295 887 167 296 888 153 296 889 143 296 890 162 297 891 148 297 892 144 297 893 145 298 894 148 298 895 141 298 896 148 299 897 149 299 898 157 299 899 149 300 900 150 300 901 156 300 902 155 301 903 150 301 904 154 301 905 154 302 906 151 302 907 153 302 908 147 303 909 158 303 910 143 303 911 158 304 912 159 304 913 167 304 914 159 305 915 160 305 916 166 305 917 165 306 918 160 306 919 164 306 920 164 307 921 161 307 922 163 307 923 140 308 924 141 308 925 163 308 926 163 309 927 157 309 928 164 309 929 164 310 930 156 310 931 165 310 932 165 311 933 155 311 934 166 311 935 166 312 936 154 312 937 167 312 938 147 313 939 146 313 940 158 313 941 158 314 942 152 314 943 159 314 944 159 315 945 151 315 946 160 315 947 160 316 948 150 316 949 161 316 950 161 317 951 149 317 952 162 317 953 172 318 954 173 318 955 168 318 956 181 319 957 180 319 958 170 319 959 174 320 960 175 320 961 170 320 962 191 321 963 190 321 964 168 321 965 195 322 966 181 322 967 171 322 968 190 323 969 176 323 970 172 323 971 173 324 972 176 324 973 169 324 974 176 325 975 177 325 976 185 325 977 177 326 978 178 326 979 184 326 980 183 327 981 178 327 982 182 327 983 182 328 984 179 328 985 181 328 986 175 329 987 186 329 988 171 329 989 186 330 990 187 330 991 195 330 992 187 331 993 188 331 994 194 331 995 193 332 996 188 332 997 192 332 998 192 333 999 189 333 1000 191 333 1001 168 334 1002 169 334 1003 191 334 1004 191 335 1005 185 335 1006 192 335 1007 192 336 1008 184 336 1009 193 336 1010 193 337 1011 183 337 1012 194 337 1013 194 338 1014 182 338 1015 195 338 1016 175 339 1017 174 339 1018 186 339 1019 186 340 1020 180 340 1021 187 340 1022 187 341 1023 179 341 1024 188 341 1025 188 342 1026 178 342 1027 189 342 1028 189 343 1029 177 343 1030 190 343 1031</p>
        </polylist>
      </mesh>
    </geometry>
  </library_geometries>
  <library_controllers/>
  <library_visual_scenes>
    <visual_scene id="Scene" name="Scene">
      <node id="Cube" name="Cube" type="NODE">
        <matrix sid="transform">-1 1.51793e-6 0 0 -1.51793e-6 -1 0 0 0 0 1 1.556636 0 0 0 1</matrix>
        <instance_geometry url="#Cube_001-mesh">
          <bind_material>
            <technique_common>
              <instance_material symbol="Material_003-material" target="#Material_003-material"/>
            </technique_common>
          </bind_material>
        </instance_geometry>
      </node>
    </visual_scene>
  </library_visual_scenes>
  <scene>
    <instance_visual_scene url="#Scene"/>
  </scene>
</COLLADA>